<?xml version="1.0" encoding="utf-8"?>
<!-- Generator: Adobe Illustrator 24.0.3, SVG Export Plug-In . SVG Version: 6.00 Build 0)  -->
<svg width="116.1" height="18" version="1.1" id="Layer_1" xmlns="http://www.w3.org/2000/svg" xmlns:xlink="http://www.w3.org/1999/xlink" x="0px" y="0px"
	 viewBox="0 0 116.1 18" style="enable-background:new 0 0 116.1 18;" xml:space="preserve">
<style type="text/css">
	.st0{fill:none;}
	.st1{fill:#D93F0B;}
	.st2{fill:url(#Shape_6_);}
</style>
<title>flare-space-logo</title>
<g id="flare_space-lr">
	<g id="flare_space-znak">
		<rect id="Rectangle" x="-10.1" y="-6" class="st0" width="136.5" height="31"/>
		<g id="Group" transform="translate(10.134272, 6.018709)">
			<g id="znak1" transform="translate(26.008059, -0.000000)">
				<path id="Path" class="st1" d="M-6.1,0.4l-1,7.8l-0.5,1.8c-0.1,0.3-0.3,0.6-0.5,0.8c-0.2,0.2-0.5,0.3-0.9,0.3h-1.1l1.3-10.7
					l-0.7-0.2c-0.2,0-0.4-0.1-0.5-0.2C-10,0-10.1-0.2-10.1-0.4l0.1-1.1h1.4l0-0.4c0.1-0.5,0.2-1,0.4-1.5c0.2-0.5,0.5-0.9,0.9-1.3
					c0.4-0.4,0.8-0.7,1.4-0.9C-5.3-5.9-4.7-6-4-6C-3.5-6-3-6-2.5-6s1,0.1,1.5,0.1h1.7L-1.1,8.7h-2.7L-2.2-4C-2.5-4-2.7-4-3-4.1
					c-0.3,0-0.5,0-0.8,0c-0.6,0-1.1,0.2-1.5,0.5c-0.4,0.4-0.6,0.9-0.7,1.7l0,0.4h2.1l-0.2,1.9H-6.1z"/>
				<path id="Shape" class="st1" d="M7.8,0.2c-0.1,0-0.1,0-0.2,0H7.4c-0.5,0-1,0.1-1.5,0.4c-0.5,0.2-0.8,0.6-1.2,1S4.2,2.4,4.1,3
					C3.9,3.5,3.8,4.1,3.8,4.7c0,0.7,0.1,1.2,0.3,1.5c0.2,0.3,0.5,0.5,0.8,0.5c0.2,0,0.5-0.1,0.7-0.3c0.2-0.2,0.5-0.4,0.7-0.7
					C6.6,5.3,6.8,5,6.9,4.6c0.2-0.4,0.3-0.9,0.5-1.4L7.8,0.2z M7.1,6.8C6.7,7.4,6.2,7.9,5.6,8.3C5.1,8.7,4.5,8.9,3.9,8.9
					c-0.4,0-0.7-0.1-1.1-0.2C2.4,8.5,2.1,8.2,1.9,7.9C1.6,7.7,1.4,7.3,1.3,6.8C1.1,6.4,1,5.8,1,5.2C1,4.6,1.1,4,1.3,3.4
					c0.2-0.6,0.4-1.1,0.7-1.6c0.3-0.5,0.6-1,1-1.4c0.4-0.4,0.8-0.8,1.3-1.1c0.5-0.3,1-0.5,1.6-0.7c0.6-0.2,1.2-0.2,1.9-0.2
					c0.5,0,1,0,1.4,0.1c0.5,0.1,1,0.2,1.4,0.4L9.4,8.7H7.9c-0.2,0-0.3,0-0.4-0.1S7.3,8.5,7.2,8.4C7.2,8.4,7.1,8.3,7.1,8.2
					c0-0.1,0-0.2,0-0.3L7.1,6.8z"/>
				<path id="Path_1_" class="st1" d="M15,0.7c0.3-0.5,0.5-0.9,0.8-1.2c0.3-0.3,0.6-0.6,0.9-0.8s0.6-0.3,1-0.3c0.3,0,0.7,0,1,0.2
					l-0.5,2.6c-0.4-0.2-0.8-0.2-1.1-0.2c-0.3,0-0.7,0.2-0.9,0.4c-0.3,0.2-0.5,0.6-0.8,1c-0.2,0.5-0.4,1-0.6,1.7l-0.6,4.6h-2.7
					l1.2-10.2h1.4c0.3,0,0.5,0.1,0.7,0.2C15-1.2,15.1-1,15.1-0.7L15,0.7z"/>
				<path id="Shape_1_" class="st1" d="M23.8,0.2c-0.3,0-0.6,0-0.8,0.2c-0.3,0.1-0.5,0.3-0.7,0.5c-0.2,0.2-0.4,0.5-0.5,0.8
					c-0.2,0.3-0.3,0.7-0.4,1c0.7-0.1,1.3-0.2,1.8-0.4C23.6,2.3,24,2.1,24.2,2c0.2-0.1,0.4-0.3,0.5-0.5c0.1-0.2,0.1-0.3,0.1-0.5
					c0-0.1,0-0.2-0.1-0.3c0-0.1-0.1-0.2-0.2-0.3c-0.1-0.1-0.2-0.1-0.3-0.2C24.2,0.2,24,0.2,23.8,0.2z M21.2,4.5
					c0,1.5,0.6,2.3,1.9,2.3c0.4,0,0.8,0,1-0.2c0.3-0.1,0.5-0.2,0.7-0.4C25,6.1,25.2,6,25.3,5.9c0.2-0.1,0.3-0.2,0.6-0.2
					c0.1,0,0.2,0,0.2,0.1c0.1,0,0.2,0.1,0.2,0.2l0.7,0.8c-0.4,0.3-0.7,0.7-1,0.9c-0.3,0.2-0.7,0.5-1,0.6c-0.4,0.2-0.7,0.3-1.2,0.4
					c-0.4,0.1-0.8,0.1-1.3,0.1c-0.6,0-1.1-0.1-1.6-0.3C20.4,8.3,20,8,19.6,7.7c-0.4-0.4-0.6-0.8-0.8-1.4c-0.2-0.5-0.3-1.1-0.3-1.7
					c0-0.5,0.1-1.1,0.2-1.6c0.1-0.5,0.3-1,0.5-1.5C19.4,1,19.7,0.6,20,0.2s0.7-0.7,1.1-1c0.4-0.3,0.9-0.5,1.4-0.7
					c0.5-0.2,1-0.2,1.5-0.2s1,0.1,1.4,0.2s0.7,0.4,1,0.6c0.3,0.2,0.5,0.5,0.6,0.8c0.2,0.3,0.2,0.6,0.2,0.9c0,0.5-0.1,0.9-0.3,1.2
					c-0.2,0.4-0.5,0.7-1,1C25.6,3.5,25,3.7,24.2,4C23.4,4.2,22.4,4.4,21.2,4.5L21.2,4.5z"/>
				<path id="Path_2_" class="st1" d="M28.1,7.3c0-0.2,0-0.4,0.1-0.6c0.1-0.2,0.2-0.4,0.3-0.5c0.2-0.1,0.3-0.2,0.5-0.3
					c0.2-0.1,0.4-0.1,0.6-0.1s0.4,0,0.6,0.1c0.2,0.1,0.4,0.2,0.5,0.3c0.1,0.1,0.2,0.3,0.3,0.5c0.1,0.2,0.1,0.4,0.1,0.6
					c0,0.2,0,0.4-0.1,0.6c-0.1,0.2-0.2,0.4-0.3,0.5c-0.2,0.2-0.3,0.3-0.5,0.3s-0.4,0.1-0.6,0.1s-0.4,0-0.6-0.1s-0.4-0.2-0.5-0.3
					c-0.1-0.1-0.2-0.3-0.3-0.5C28.2,7.7,28.1,7.5,28.1,7.3z"/>
				<path id="Path_3_" class="st1" d="M39.9,0.5c-0.1,0.1-0.2,0.2-0.2,0.2c-0.1,0-0.2,0.1-0.3,0.1c-0.1,0-0.2,0-0.4-0.1
					c-0.1-0.1-0.2-0.1-0.4-0.2c-0.2-0.1-0.3-0.2-0.5-0.2c-0.2-0.1-0.4-0.1-0.7-0.1c-0.5,0-0.9,0.1-1.1,0.3C36,0.7,35.9,1,35.9,1.3
					c0,0.2,0.1,0.5,0.3,0.6c0.2,0.2,0.4,0.3,0.7,0.4c0.3,0.1,0.6,0.2,0.9,0.4c0.3,0.1,0.7,0.3,1,0.5c0.3,0.2,0.5,0.5,0.7,0.8
					c0.2,0.3,0.3,0.7,0.3,1.2c0,0.5-0.1,1-0.3,1.4C39.3,7,39,7.4,38.6,7.8c-0.4,0.3-0.8,0.6-1.3,0.8c-0.5,0.2-1.1,0.3-1.8,0.3
					c-0.3,0-0.6,0-0.9-0.1c-0.3-0.1-0.6-0.2-0.9-0.3c-0.3-0.1-0.5-0.2-0.7-0.4c-0.2-0.1-0.4-0.3-0.5-0.5l0.7-1
					c0.1-0.1,0.2-0.2,0.3-0.3c0.1-0.1,0.2-0.1,0.4-0.1c0.1,0,0.3,0,0.4,0.1c0.1,0.1,0.2,0.2,0.4,0.3c0.1,0.1,0.3,0.2,0.5,0.3
					S35.5,7,35.9,7c0.2,0,0.5,0,0.6-0.1c0.2,0,0.4-0.1,0.5-0.2c0.1-0.1,0.2-0.2,0.3-0.4c0.1-0.1,0.1-0.3,0.1-0.5
					c0-0.3-0.1-0.5-0.3-0.7c-0.2-0.2-0.5-0.3-0.7-0.4c-0.3-0.1-0.6-0.2-1-0.3c-0.3-0.1-0.6-0.3-0.9-0.5c-0.3-0.2-0.5-0.4-0.7-0.7
					c-0.2-0.3-0.3-0.7-0.3-1.2c0-0.5,0.1-0.9,0.2-1.4c0.2-0.4,0.4-0.8,0.8-1.2c0.3-0.3,0.7-0.6,1.3-0.8c0.5-0.2,1.1-0.3,1.7-0.3
					s1.2,0.1,1.8,0.3c0.5,0.2,1,0.5,1.3,0.9L39.9,0.5z"/>
				<path id="Shape_2_" class="st1" d="M44,6.3c0.2,0.2,0.5,0.3,0.7,0.4c0.3,0.1,0.5,0.1,0.8,0.1c0.4,0,0.7-0.1,1.1-0.4
					s0.6-0.6,0.9-1C47.7,5,47.9,4.5,48,4c0.1-0.5,0.2-1.1,0.2-1.6c0-0.7-0.1-1.2-0.3-1.5c-0.2-0.3-0.5-0.5-0.9-0.5
					c-0.2,0-0.5,0.1-0.7,0.3c-0.2,0.2-0.5,0.4-0.7,0.7c-0.2,0.3-0.5,0.7-0.7,1.1s-0.4,0.9-0.5,1.3L44,6.3z M44.6,0.5
					c0.5-0.7,1-1.2,1.6-1.6c0.6-0.4,1.2-0.6,1.9-0.6c0.4,0,0.8,0.1,1.2,0.2c0.3,0.2,0.6,0.4,0.9,0.7c0.2,0.3,0.4,0.7,0.6,1.2
					c0.1,0.5,0.2,1,0.2,1.7c0,0.6-0.1,1.2-0.2,1.7c-0.1,0.6-0.3,1.1-0.5,1.6c-0.2,0.5-0.5,1-0.8,1.4c-0.3,0.4-0.7,0.8-1,1.1
					c-0.4,0.3-0.8,0.5-1.2,0.7c-0.4,0.2-0.9,0.2-1.3,0.2c-0.5,0-0.8-0.1-1.2-0.2c-0.4-0.2-0.7-0.4-0.9-0.6l-0.5,4h-2.7l1.7-13.6h1.4
					c0.3,0,0.5,0.1,0.7,0.2c0.2,0.1,0.2,0.4,0.2,0.7L44.6,0.5z"/>
				<path id="Shape_3_" class="st1" d="M58.6,0.2c-0.1,0-0.1,0-0.2,0h-0.2c-0.5,0-1,0.1-1.5,0.4c-0.5,0.2-0.8,0.6-1.2,1
					S55,2.4,54.8,3c-0.2,0.5-0.3,1.1-0.3,1.7c0,0.7,0.1,1.2,0.3,1.5c0.2,0.3,0.5,0.5,0.8,0.5c0.2,0,0.5-0.1,0.7-0.3
					c0.2-0.2,0.5-0.4,0.7-0.7c0.2-0.3,0.4-0.7,0.6-1.1c0.2-0.4,0.3-0.9,0.5-1.4L58.6,0.2z M57.9,6.8c-0.4,0.7-0.9,1.2-1.5,1.5
					c-0.5,0.4-1.1,0.6-1.8,0.6c-0.4,0-0.7-0.1-1.1-0.2c-0.3-0.2-0.6-0.4-0.9-0.7c-0.3-0.3-0.5-0.7-0.6-1.1c-0.2-0.5-0.2-1-0.2-1.6
					c0-0.6,0.1-1.2,0.2-1.8c0.2-0.6,0.4-1.1,0.7-1.6c0.3-0.5,0.6-1,1-1.4c0.4-0.4,0.9-0.8,1.4-1.1c0.5-0.3,1-0.5,1.6-0.7
					c0.6-0.2,1.2-0.2,1.9-0.2c0.5,0,1,0,1.4,0.1c0.5,0.1,1,0.2,1.4,0.4l-1.2,9.9h-1.5c-0.2,0-0.3,0-0.4-0.1c-0.1,0-0.2-0.1-0.3-0.2
					c-0.1-0.1-0.1-0.2-0.1-0.3c0-0.1,0-0.2,0-0.3L57.9,6.8z"/>
				<path id="Path_4_" class="st1" d="M70.3,6.9c-0.3,0.4-0.7,0.7-1,0.9c-0.3,0.2-0.6,0.5-1,0.6c-0.3,0.2-0.7,0.2-1,0.3
					c-0.3,0.1-0.7,0.1-1.2,0.1c-0.6,0-1.1-0.1-1.6-0.3c-0.5-0.2-0.9-0.5-1.2-0.9c-0.3-0.4-0.6-0.8-0.8-1.3c-0.2-0.5-0.2-1.1-0.2-1.8
					c0-0.8,0.1-1.6,0.4-2.4c0.3-0.7,0.6-1.4,1.1-2c0.5-0.6,1-1,1.7-1.4c0.7-0.3,1.4-0.5,2.2-0.5c0.7,0,1.2,0.1,1.7,0.4
					c0.5,0.2,0.9,0.6,1.3,1.1l-0.9,1c-0.1,0.1-0.1,0.1-0.2,0.2C69.6,1,69.6,1,69.5,1c-0.1,0-0.2,0-0.3-0.1c-0.1-0.1-0.2-0.1-0.3-0.2
					c-0.1-0.1-0.2-0.2-0.4-0.2c-0.2-0.1-0.4-0.1-0.7-0.1c-0.3,0-0.7,0.1-1,0.3c-0.3,0.2-0.6,0.5-0.9,0.8c-0.2,0.3-0.4,0.8-0.6,1.3
					c-0.1,0.5-0.2,1.1-0.2,1.7c0,0.7,0.1,1.3,0.5,1.7c0.3,0.4,0.7,0.5,1.2,0.5c0.4,0,0.7,0,0.9-0.1c0.2-0.1,0.4-0.2,0.6-0.3
					c0.2-0.1,0.3-0.2,0.4-0.3c0.1-0.1,0.3-0.2,0.5-0.2c0.1,0,0.2,0,0.2,0.1c0.1,0,0.2,0.1,0.2,0.2L70.3,6.9z"/>
				<path id="Shape_4_" class="st1" d="M76.5,0.2c-0.3,0-0.6,0-0.8,0.2c-0.3,0.1-0.5,0.3-0.7,0.5c-0.2,0.2-0.4,0.5-0.5,0.8
					c-0.2,0.3-0.3,0.7-0.4,1c0.7-0.1,1.3-0.2,1.8-0.4c0.5-0.1,0.8-0.2,1.1-0.4c0.2-0.1,0.4-0.3,0.5-0.5c0.1-0.2,0.1-0.3,0.1-0.5
					c0-0.1,0-0.2-0.1-0.3c0-0.1-0.1-0.2-0.2-0.3c-0.1-0.1-0.2-0.1-0.3-0.2C76.8,0.2,76.7,0.2,76.5,0.2z M73.8,4.5
					c0,1.5,0.6,2.3,1.9,2.3c0.4,0,0.8,0,1-0.2c0.3-0.1,0.5-0.2,0.7-0.4C77.6,6.1,77.8,6,78,5.9c0.2-0.1,0.3-0.2,0.6-0.2
					c0.1,0,0.2,0,0.2,0.1C78.9,5.8,79,5.9,79,6l0.7,0.8c-0.4,0.3-0.7,0.7-1,0.9C78.3,8,78,8.2,77.6,8.4c-0.4,0.2-0.7,0.3-1.1,0.4
					c-0.4,0.1-0.8,0.1-1.3,0.1c-0.6,0-1.1-0.1-1.6-0.3C73,8.3,72.6,8,72.2,7.7c-0.3-0.4-0.6-0.8-0.8-1.4c-0.2-0.5-0.3-1.1-0.3-1.7
					c0-0.5,0.1-1.1,0.2-1.6c0.1-0.5,0.3-1,0.5-1.5C72,1,72.3,0.6,72.6,0.2s0.7-0.7,1.1-1c0.4-0.3,0.9-0.5,1.4-0.7
					c0.5-0.2,1-0.2,1.5-0.2s1,0.1,1.4,0.2s0.7,0.4,1,0.6c0.3,0.2,0.5,0.5,0.6,0.8C79.9,0.3,80,0.6,80,0.9c0,0.5-0.1,0.9-0.3,1.2
					c-0.2,0.4-0.5,0.7-1,1c-0.5,0.3-1.1,0.5-1.9,0.8C76,4.2,75,4.4,73.8,4.5L73.8,4.5z"/>
			</g>
			<g id="simbol" transform="translate(-0.000000, 2.511332)">
				
					<linearGradient id="Shape_6_" gradientUnits="userSpaceOnUse" x1="-108.4374" y1="218.2326" x2="-107.4374" y2="218.2326" gradientTransform="matrix(19.2501 0 0 -13.0393 2077.2942 2846.1016)">
					<stop  offset="0" style="stop-color:#D93F0B;stop-opacity:0.6"/>
					<stop  offset="1" style="stop-color:#D93F0B"/>
				</linearGradient>
				<path id="Shape_5_" class="st2" d="M1.4,3.1C1.1,5.5-1.2,7.3-3.6,7l1.1-9v0C-2.2-4.5,0.1-6.3,2.5-6L1.4,3.1L1.4,3.1z M-5.1,3.1
					C-5.4,5.5-7.7,7.3-10.1,7l0.6-4.5l0,0C-9.3,0-7-1.8-4.5-1.5L-5.1,3.1L-5.1,3.1z M8.6-1.4C8.2,1,6,2.8,3.5,2.5l0.6-4.5
					C4.4-4.5,6.6-6.3,9.1-6L8.6-1.4z"/>
			</g>
		</g>
	</g>
</g>
</svg>
